<mxfile host="app.diagrams.net" modified="2021-06-21T09:48:37.912Z" agent="5.0 (Windows NT 10.0; Win64; x64) AppleWebKit/537.36 (KHTML, like Gecko) Chrome/91.0.4472.114 Safari/537.36" etag="Qvs2b--smfCnK9APbEKa" version="14.8.0" type="github">
  <diagram id="OwPYrj5kSUjGL6jPcf3g" name="Page-1">
    <mxGraphModel dx="868" dy="482" grid="1" gridSize="10" guides="1" tooltips="1" connect="1" arrows="1" fold="1" page="1" pageScale="1" pageWidth="850" pageHeight="1100" math="0" shadow="0">
      <root>
        <mxCell id="0" />
        <mxCell id="1" parent="0" />
        <mxCell id="QIfB0PR_CLWIe0XjQ6Tf-1" value="" style="rounded=0;whiteSpace=wrap;html=1;" vertex="1" parent="1">
          <mxGeometry x="120" y="60" width="690" height="430" as="geometry" />
        </mxCell>
        <mxCell id="QIfB0PR_CLWIe0XjQ6Tf-2" value="" style="rounded=0;whiteSpace=wrap;html=1;" vertex="1" parent="1">
          <mxGeometry x="185" y="100" width="560" height="370" as="geometry" />
        </mxCell>
        <mxCell id="QIfB0PR_CLWIe0XjQ6Tf-3" value="" style="rounded=0;whiteSpace=wrap;html=1;" vertex="1" parent="1">
          <mxGeometry x="210" y="130" width="330" height="160" as="geometry" />
        </mxCell>
        <mxCell id="QIfB0PR_CLWIe0XjQ6Tf-4" value="" style="rounded=0;whiteSpace=wrap;html=1;" vertex="1" parent="1">
          <mxGeometry x="550" y="130" width="180" height="320" as="geometry" />
        </mxCell>
        <mxCell id="QIfB0PR_CLWIe0XjQ6Tf-5" value="Text" style="text;html=1;strokeColor=none;fillColor=none;align=center;verticalAlign=middle;whiteSpace=wrap;rounded=0;" vertex="1" parent="1">
          <mxGeometry x="230" y="320" width="40" height="20" as="geometry" />
        </mxCell>
        <mxCell id="QIfB0PR_CLWIe0XjQ6Tf-6" value="Text" style="text;html=1;strokeColor=none;fillColor=none;align=center;verticalAlign=middle;whiteSpace=wrap;rounded=0;" vertex="1" parent="1">
          <mxGeometry x="470" y="320" width="40" height="20" as="geometry" />
        </mxCell>
        <mxCell id="QIfB0PR_CLWIe0XjQ6Tf-7" value="&lt;h1&gt;Heading&lt;/h1&gt;&lt;p&gt;Lorem ipsum dolor sit amet, consectetur adipisicing elit, sed do eiusmod tempor incididunt ut labore et dolore magna aliqua.&lt;/p&gt;" style="text;html=1;strokeColor=none;fillColor=none;spacing=5;spacingTop=-20;whiteSpace=wrap;overflow=hidden;rounded=0;" vertex="1" parent="1">
          <mxGeometry x="210" y="350" width="300" height="120" as="geometry" />
        </mxCell>
        <mxCell id="QIfB0PR_CLWIe0XjQ6Tf-8" value="Video Player App" style="text;html=1;strokeColor=none;fillColor=none;align=center;verticalAlign=middle;whiteSpace=wrap;rounded=0;" vertex="1" parent="1">
          <mxGeometry x="300" y="70" width="320" height="20" as="geometry" />
        </mxCell>
        <mxCell id="QIfB0PR_CLWIe0XjQ6Tf-9" value="" style="rounded=0;whiteSpace=wrap;html=1;" vertex="1" parent="1">
          <mxGeometry x="580" y="145" width="120" height="60" as="geometry" />
        </mxCell>
        <mxCell id="QIfB0PR_CLWIe0XjQ6Tf-10" value="" style="rounded=0;whiteSpace=wrap;html=1;" vertex="1" parent="1">
          <mxGeometry x="580" y="225" width="120" height="60" as="geometry" />
        </mxCell>
        <mxCell id="QIfB0PR_CLWIe0XjQ6Tf-11" value="" style="rounded=0;whiteSpace=wrap;html=1;" vertex="1" parent="1">
          <mxGeometry x="579" y="301" width="120" height="60" as="geometry" />
        </mxCell>
        <mxCell id="QIfB0PR_CLWIe0XjQ6Tf-12" value="" style="rounded=0;whiteSpace=wrap;html=1;" vertex="1" parent="1">
          <mxGeometry x="579" y="375" width="120" height="60" as="geometry" />
        </mxCell>
        <mxCell id="QIfB0PR_CLWIe0XjQ6Tf-17" value="" style="rounded=0;whiteSpace=wrap;html=1;" vertex="1" parent="1">
          <mxGeometry x="599" y="150" width="80" height="30" as="geometry" />
        </mxCell>
        <mxCell id="QIfB0PR_CLWIe0XjQ6Tf-18" value="" style="rounded=0;whiteSpace=wrap;html=1;" vertex="1" parent="1">
          <mxGeometry x="609" y="185" width="60" height="15" as="geometry" />
        </mxCell>
      </root>
    </mxGraphModel>
  </diagram>
</mxfile>
